<svg id="visual" viewBox="0 0 900 600" width="900" height="600" xmlns="http://www.w3.org/2000/svg" xmlns:xlink="http://www.w3.org/1999/xlink" version="1.1"><g stroke-width="1" stroke-linejoin="bevel"><path d="M449 271L548.5 316L479 205Z" fill="#253c91" stroke="#253c91"></path><path d="M548.5 316L535.5 195L479 205Z" fill="#972184" stroke="#972184"></path><path d="M449 271L534.5 391L548.5 316Z" fill="#812b8c" stroke="#812b8c"></path><path d="M681 182L557.5 129L535.5 195Z" fill="#db2d2e" stroke="#db2d2e"></path><path d="M535.5 195L472 121L479 205Z" fill="#683390" stroke="#683390"></path><path d="M557.5 129L472 121L535.5 195Z" fill="#d81840" stroke="#d81840"></path><path d="M334.5 171L343.5 271L449 271Z" fill="#d81840" stroke="#d81840"></path><path d="M534.5 391L659 310L548.5 316Z" fill="#683390" stroke="#683390"></path><path d="M548.5 316L659 310L535.5 195Z" fill="#d81840" stroke="#d81840"></path><path d="M334.5 171L449 271L479 205Z" fill="#c70060" stroke="#c70060"></path><path d="M449 271L441 426L534.5 391Z" fill="#db2d2e" stroke="#db2d2e"></path><path d="M363.5 407L441 426L449 271Z" fill="#972184" stroke="#972184"></path><path d="M659 310L681 182L535.5 195Z" fill="#972184" stroke="#972184"></path><path d="M472 121L334.5 171L479 205Z" fill="#d10050" stroke="#d10050"></path><path d="M681 182L674 130L557.5 129Z" fill="#812b8c" stroke="#812b8c"></path><path d="M449 0L367.5 101L472 121Z" fill="#ba006e" stroke="#ba006e"></path><path d="M343.5 271L363.5 407L449 271Z" fill="#ba006e" stroke="#ba006e"></path><path d="M565.5 0L472 121L557.5 129Z" fill="#db2d2e" stroke="#db2d2e"></path><path d="M472 121L367.5 101L334.5 171Z" fill="#812b8c" stroke="#812b8c"></path><path d="M363.5 407L426 480L441 426Z" fill="#4b3992" stroke="#4b3992"></path><path d="M441 426L571.5 513L534.5 391Z" fill="#683390" stroke="#683390"></path><path d="M534.5 391L694 421L659 310Z" fill="#4b3992" stroke="#4b3992"></path><path d="M646 485L694 421L534.5 391Z" fill="#db2d2e" stroke="#db2d2e"></path><path d="M659 310L775.5 270L681 182Z" fill="#972184" stroke="#972184"></path><path d="M426 480L571.5 513L441 426Z" fill="#4b3992" stroke="#4b3992"></path><path d="M571.5 513L646 485L534.5 391Z" fill="#253c91" stroke="#253c91"></path><path d="M694 421L775.5 270L659 310Z" fill="#d10050" stroke="#d10050"></path><path d="M681 182L795.5 116L674 130Z" fill="#812b8c" stroke="#812b8c"></path><path d="M674 130L565.5 0L557.5 129Z" fill="#aa137a" stroke="#aa137a"></path><path d="M565.5 0L449 0L472 121Z" fill="#ba006e" stroke="#ba006e"></path><path d="M343.5 271L242 369L363.5 407Z" fill="#812b8c" stroke="#812b8c"></path><path d="M363.5 407L312.5 530L426 480Z" fill="#ba006e" stroke="#ba006e"></path><path d="M197 303L242 369L343.5 271Z" fill="#c70060" stroke="#c70060"></path><path d="M201 74L214 176L334.5 171Z" fill="#db2d2e" stroke="#db2d2e"></path><path d="M334.5 171L214 176L343.5 271Z" fill="#db2d2e" stroke="#db2d2e"></path><path d="M201 74L334.5 171L367.5 101Z" fill="#d10050" stroke="#d10050"></path><path d="M775.5 270L814.5 172L681 182Z" fill="#db2d2e" stroke="#db2d2e"></path><path d="M674 130L696 0L565.5 0Z" fill="#d81840" stroke="#d81840"></path><path d="M814.5 172L795.5 116L681 182Z" fill="#253c91" stroke="#253c91"></path><path d="M795.5 116L696 0L674 130Z" fill="#812b8c" stroke="#812b8c"></path><path d="M214 176L197 303L343.5 271Z" fill="#972184" stroke="#972184"></path><path d="M694 421L794.5 417L775.5 270Z" fill="#aa137a" stroke="#aa137a"></path><path d="M775.5 270L900 284L814.5 172Z" fill="#812b8c" stroke="#812b8c"></path><path d="M815.5 508L794.5 417L694 421Z" fill="#253c91" stroke="#253c91"></path><path d="M449 0L308.5 0L367.5 101Z" fill="#253c91" stroke="#253c91"></path><path d="M235 501L312.5 530L363.5 407Z" fill="#253c91" stroke="#253c91"></path><path d="M426 480L538.5 600L571.5 513Z" fill="#c70060" stroke="#c70060"></path><path d="M235 501L363.5 407L242 369Z" fill="#ba006e" stroke="#ba006e"></path><path d="M571.5 513L651 600L646 485Z" fill="#812b8c" stroke="#812b8c"></path><path d="M646 485L815.5 508L694 421Z" fill="#db2d2e" stroke="#db2d2e"></path><path d="M430 600L538.5 600L426 480Z" fill="#aa137a" stroke="#aa137a"></path><path d="M358.5 600L430 600L426 480Z" fill="#db2d2e" stroke="#db2d2e"></path><path d="M308.5 0L201 74L367.5 101Z" fill="#812b8c" stroke="#812b8c"></path><path d="M112.5 230L122.5 307L197 303Z" fill="#812b8c" stroke="#812b8c"></path><path d="M538.5 600L651 600L571.5 513Z" fill="#d81840" stroke="#d81840"></path><path d="M138.5 384L235 501L242 369Z" fill="#683390" stroke="#683390"></path><path d="M312.5 530L358.5 600L426 480Z" fill="#683390" stroke="#683390"></path><path d="M195 600L358.5 600L312.5 530Z" fill="#db2d2e" stroke="#db2d2e"></path><path d="M900 100L782.5 0L795.5 116Z" fill="#812b8c" stroke="#812b8c"></path><path d="M795.5 116L782.5 0L696 0Z" fill="#aa137a" stroke="#aa137a"></path><path d="M308.5 0L240 0L201 74Z" fill="#c70060" stroke="#c70060"></path><path d="M900 396L900 284L794.5 417Z" fill="#4b3992" stroke="#4b3992"></path><path d="M794.5 417L900 284L775.5 270Z" fill="#db2d2e" stroke="#db2d2e"></path><path d="M814.5 172L900 100L795.5 116Z" fill="#c70060" stroke="#c70060"></path><path d="M776.5 600L815.5 508L646 485Z" fill="#db2d2e" stroke="#db2d2e"></path><path d="M197 303L138.5 384L242 369Z" fill="#972184" stroke="#972184"></path><path d="M112.5 230L197 303L214 176Z" fill="#4b3992" stroke="#4b3992"></path><path d="M900 284L900 181L814.5 172Z" fill="#d10050" stroke="#d10050"></path><path d="M122.5 307L138.5 384L197 303Z" fill="#4b3992" stroke="#4b3992"></path><path d="M138.5 0L142.5 118L201 74Z" fill="#ba006e" stroke="#ba006e"></path><path d="M201 74L142.5 118L214 176Z" fill="#d81840" stroke="#d81840"></path><path d="M142.5 118L112.5 230L214 176Z" fill="#683390" stroke="#683390"></path><path d="M815.5 508L900 396L794.5 417Z" fill="#683390" stroke="#683390"></path><path d="M900 181L900 100L814.5 172Z" fill="#683390" stroke="#683390"></path><path d="M651 600L776.5 600L646 485Z" fill="#aa137a" stroke="#aa137a"></path><path d="M815.5 508L900 528L900 396Z" fill="#4b3992" stroke="#4b3992"></path><path d="M240 0L138.5 0L201 74Z" fill="#c70060" stroke="#c70060"></path><path d="M0 209L0 284L112.5 230Z" fill="#ba006e" stroke="#ba006e"></path><path d="M235 501L195 600L312.5 530Z" fill="#253c91" stroke="#253c91"></path><path d="M93.5 523L195 600L235 501Z" fill="#4b3992" stroke="#4b3992"></path><path d="M900 100L900 0L782.5 0Z" fill="#c70060" stroke="#c70060"></path><path d="M900 600L900 528L815.5 508Z" fill="#4b3992" stroke="#4b3992"></path><path d="M0 373L93.5 523L138.5 384Z" fill="#4b3992" stroke="#4b3992"></path><path d="M138.5 384L93.5 523L235 501Z" fill="#ba006e" stroke="#ba006e"></path><path d="M0 373L138.5 384L122.5 307Z" fill="#253c91" stroke="#253c91"></path><path d="M93.5 523L136.5 600L195 600Z" fill="#aa137a" stroke="#aa137a"></path><path d="M112.5 230L0 284L122.5 307Z" fill="#ba006e" stroke="#ba006e"></path><path d="M0 209L112.5 230L0 107Z" fill="#d81840" stroke="#d81840"></path><path d="M776.5 600L900 600L815.5 508Z" fill="#812b8c" stroke="#812b8c"></path><path d="M0 107L112.5 230L142.5 118Z" fill="#683390" stroke="#683390"></path><path d="M0 284L0 373L122.5 307Z" fill="#683390" stroke="#683390"></path><path d="M93.5 523L0 600L136.5 600Z" fill="#db2d2e" stroke="#db2d2e"></path><path d="M138.5 0L0 107L142.5 118Z" fill="#812b8c" stroke="#812b8c"></path><path d="M0 373L0 518L93.5 523Z" fill="#c70060" stroke="#c70060"></path><path d="M138.5 0L0 0L0 107Z" fill="#683390" stroke="#683390"></path><path d="M0 518L0 600L93.5 523Z" fill="#c70060" stroke="#c70060"></path></g></svg>