<svg id="visual" viewBox="0 0 900 600" width="900" height="600" xmlns="http://www.w3.org/2000/svg" xmlns:xlink="http://www.w3.org/1999/xlink" version="1.1"><g stroke-width="1" stroke-linejoin="bevel"><path d="M508 279L586 226L520 226Z" fill="#15384f" stroke="#15384f"></path><path d="M508 279L612 332L586 226Z" fill="#297ea6" stroke="#297ea6"></path><path d="M508 279L576 361L612 332Z" fill="#0c2435" stroke="#0c2435"></path><path d="M718 229L610 128L586 226Z" fill="#205a7a" stroke="#205a7a"></path><path d="M586 226L610 128L520 226Z" fill="#112e42" stroke="#112e42"></path><path d="M720 366L697 285L612 332Z" fill="#246688" stroke="#246688"></path><path d="M612 332L697 285L586 226Z" fill="#297ea6" stroke="#297ea6"></path><path d="M488 99L420 178L520 226Z" fill="#0c2435" stroke="#0c2435"></path><path d="M520 226L420 178L508 279Z" fill="#15384f" stroke="#15384f"></path><path d="M508 279L487 432L576 361Z" fill="#00101c" stroke="#00101c"></path><path d="M697 285L718 229L586 226Z" fill="#1d4e6b" stroke="#1d4e6b"></path><path d="M610 128L488 99L520 226Z" fill="#15384f" stroke="#15384f"></path><path d="M420 178L374 296L508 279Z" fill="#0c2435" stroke="#0c2435"></path><path d="M361 369L487 432L508 279Z" fill="#00101c" stroke="#00101c"></path><path d="M576 361L720 366L612 332Z" fill="#205a7a" stroke="#205a7a"></path><path d="M600 499L720 366L576 361Z" fill="#00101c" stroke="#00101c"></path><path d="M697 285L816 302L718 229Z" fill="#15384f" stroke="#15384f"></path><path d="M488 99L432 102L420 178Z" fill="#00101c" stroke="#00101c"></path><path d="M420 178L321 222L374 296Z" fill="#205a7a" stroke="#205a7a"></path><path d="M374 296L361 369L508 279Z" fill="#297ea6" stroke="#297ea6"></path><path d="M287 86L321 222L420 178Z" fill="#277297" stroke="#277297"></path><path d="M287 336L317 385L361 369Z" fill="#1d4e6b" stroke="#1d4e6b"></path><path d="M830 162L736 113L718 229Z" fill="#112e42" stroke="#112e42"></path><path d="M718 229L736 113L610 128Z" fill="#297ea6" stroke="#297ea6"></path><path d="M610 128L525 0L488 99Z" fill="#1d4e6b" stroke="#1d4e6b"></path><path d="M481 509L600 499L487 432Z" fill="#081a28" stroke="#081a28"></path><path d="M487 432L600 499L576 361Z" fill="#277297" stroke="#277297"></path><path d="M436 507L481 509L487 432Z" fill="#15384f" stroke="#15384f"></path><path d="M632 0L525 0L610 128Z" fill="#1d4e6b" stroke="#1d4e6b"></path><path d="M488 99L412 0L432 102Z" fill="#205a7a" stroke="#205a7a"></path><path d="M432 102L287 86L420 178Z" fill="#15384f" stroke="#15384f"></path><path d="M811 365L816 302L720 366Z" fill="#0c2435" stroke="#0c2435"></path><path d="M720 366L816 302L697 285Z" fill="#15384f" stroke="#15384f"></path><path d="M287 336L361 369L374 296Z" fill="#246688" stroke="#246688"></path><path d="M361 369L436 507L487 432Z" fill="#081a28" stroke="#081a28"></path><path d="M339 516L436 507L361 369Z" fill="#0c2435" stroke="#0c2435"></path><path d="M684 0L632 0L610 128Z" fill="#277297" stroke="#277297"></path><path d="M321 222L287 336L374 296Z" fill="#1d4e6b" stroke="#1d4e6b"></path><path d="M798 505L811 365L720 366Z" fill="#00101c" stroke="#00101c"></path><path d="M585 600L683 523L600 499Z" fill="#0c2435" stroke="#0c2435"></path><path d="M600 499L683 523L720 366Z" fill="#277297" stroke="#277297"></path><path d="M585 600L600 499L520 600Z" fill="#246688" stroke="#246688"></path><path d="M736 113L684 0L610 128Z" fill="#0c2435" stroke="#0c2435"></path><path d="M816 302L830 162L718 229Z" fill="#112e42" stroke="#112e42"></path><path d="M736 113L779 64L684 0Z" fill="#277297" stroke="#277297"></path><path d="M900 208L830 162L816 302Z" fill="#297ea6" stroke="#297ea6"></path><path d="M525 0L412 0L488 99Z" fill="#15384f" stroke="#15384f"></path><path d="M830 162L779 64L736 113Z" fill="#205a7a" stroke="#205a7a"></path><path d="M412 0L287 86L432 102Z" fill="#081a28" stroke="#081a28"></path><path d="M321 222L221 263L287 336Z" fill="#0c2435" stroke="#0c2435"></path><path d="M231 92L221 263L321 222Z" fill="#112e42" stroke="#112e42"></path><path d="M188 505L339 516L317 385Z" fill="#297ea6" stroke="#297ea6"></path><path d="M317 385L339 516L361 369Z" fill="#277297" stroke="#277297"></path><path d="M520 600L600 499L481 509Z" fill="#1d4e6b" stroke="#1d4e6b"></path><path d="M162 398L317 385L287 336Z" fill="#19435d" stroke="#19435d"></path><path d="M520 600L481 509L436 507Z" fill="#081a28" stroke="#081a28"></path><path d="M366 600L520 600L436 507Z" fill="#00101c" stroke="#00101c"></path><path d="M683 523L798 505L720 366Z" fill="#00101c" stroke="#00101c"></path><path d="M900 391L900 265L816 302Z" fill="#1d4e6b" stroke="#1d4e6b"></path><path d="M702 600L798 505L683 523Z" fill="#112e42" stroke="#112e42"></path><path d="M900 391L816 302L811 365Z" fill="#15384f" stroke="#15384f"></path><path d="M900 80L811 0L779 64Z" fill="#00101c" stroke="#00101c"></path><path d="M900 265L900 208L816 302Z" fill="#205a7a" stroke="#205a7a"></path><path d="M296 0L231 92L287 86Z" fill="#0c2435" stroke="#0c2435"></path><path d="M287 86L231 92L321 222Z" fill="#205a7a" stroke="#205a7a"></path><path d="M412 0L296 0L287 86Z" fill="#112e42" stroke="#112e42"></path><path d="M900 80L779 64L830 162Z" fill="#205a7a" stroke="#205a7a"></path><path d="M779 64L811 0L684 0Z" fill="#277297" stroke="#277297"></path><path d="M585 600L702 600L683 523Z" fill="#081a28" stroke="#081a28"></path><path d="M798 505L900 391L811 365Z" fill="#246688" stroke="#246688"></path><path d="M325 600L366 600L339 516Z" fill="#277297" stroke="#277297"></path><path d="M339 516L366 600L436 507Z" fill="#00101c" stroke="#00101c"></path><path d="M900 208L900 80L830 162Z" fill="#19435d" stroke="#19435d"></path><path d="M231 92L161 234L221 263Z" fill="#277297" stroke="#277297"></path><path d="M221 263L162 398L287 336Z" fill="#297ea6" stroke="#297ea6"></path><path d="M211 600L325 600L339 516Z" fill="#1d4e6b" stroke="#1d4e6b"></path><path d="M139 375L162 398L221 263Z" fill="#00101c" stroke="#00101c"></path><path d="M817 600L900 508L798 505Z" fill="#00101c" stroke="#00101c"></path><path d="M798 505L900 508L900 391Z" fill="#19435d" stroke="#19435d"></path><path d="M94 318L139 375L221 263Z" fill="#19435d" stroke="#19435d"></path><path d="M162 398L188 505L317 385Z" fill="#246688" stroke="#246688"></path><path d="M702 600L817 600L798 505Z" fill="#112e42" stroke="#112e42"></path><path d="M900 80L900 0L811 0Z" fill="#205a7a" stroke="#205a7a"></path><path d="M65 463L188 505L162 398Z" fill="#1d4e6b" stroke="#1d4e6b"></path><path d="M63 101L65 230L161 234Z" fill="#205a7a" stroke="#205a7a"></path><path d="M161 234L94 318L221 263Z" fill="#0c2435" stroke="#0c2435"></path><path d="M296 0L183 0L231 92Z" fill="#19435d" stroke="#19435d"></path><path d="M65 230L94 318L161 234Z" fill="#1d4e6b" stroke="#1d4e6b"></path><path d="M139 375L65 463L162 398Z" fill="#205a7a" stroke="#205a7a"></path><path d="M188 505L211 600L339 516Z" fill="#297ea6" stroke="#297ea6"></path><path d="M115 600L211 600L188 505Z" fill="#297ea6" stroke="#297ea6"></path><path d="M817 600L900 600L900 508Z" fill="#246688" stroke="#246688"></path><path d="M63 101L161 234L231 92Z" fill="#297ea6" stroke="#297ea6"></path><path d="M183 0L63 101L231 92Z" fill="#277297" stroke="#277297"></path><path d="M0 365L139 375L94 318Z" fill="#081a28" stroke="#081a28"></path><path d="M0 365L65 463L139 375Z" fill="#1d4e6b" stroke="#1d4e6b"></path><path d="M0 261L94 318L65 230Z" fill="#205a7a" stroke="#205a7a"></path><path d="M0 197L0 261L65 230Z" fill="#0c2435" stroke="#0c2435"></path><path d="M65 463L115 600L188 505Z" fill="#246688" stroke="#246688"></path><path d="M63 101L0 197L65 230Z" fill="#246688" stroke="#246688"></path><path d="M183 0L60 0L63 101Z" fill="#246688" stroke="#246688"></path><path d="M63 101L0 95L0 197Z" fill="#19435d" stroke="#19435d"></path><path d="M0 261L0 365L94 318Z" fill="#15384f" stroke="#15384f"></path><path d="M65 463L0 600L115 600Z" fill="#1d4e6b" stroke="#1d4e6b"></path><path d="M60 0L0 95L63 101Z" fill="#15384f" stroke="#15384f"></path><path d="M0 365L0 476L65 463Z" fill="#00101c" stroke="#00101c"></path><path d="M60 0L0 0L0 95Z" fill="#1d4e6b" stroke="#1d4e6b"></path><path d="M0 476L0 600L65 463Z" fill="#1d4e6b" stroke="#1d4e6b"></path></g></svg>